<?xml version="1.0" encoding="UTF-8" standalone="no"?>
<svg width="256px" height="256px" viewBox="0 0 256 256" version="1.1" xmlns="http://www.w3.org/2000/svg" xmlns:xlink="http://www.w3.org/1999/xlink">
    <!-- Generator: Sketch 3.7.1 (28215) - http://www.bohemiancoding.com/sketch -->
    <title>Air</title>
    <desc>Created with Sketch.</desc>
    <defs>
        <rect id="path-1" x="0" y="0" width="256" height="256"></rect>
        <mask id="mask-2" maskContentUnits="userSpaceOnUse" maskUnits="objectBoundingBox" x="0" y="0" width="256" height="256" fill="white">
            <use xlink:href="#path-1"></use>
        </mask>
    </defs>
    <g id="Page-1" stroke="none" stroke-width="1" fill="none" fill-rule="evenodd">
        <g id="Air">
            <use id="Box" stroke="#E5CC50" mask="url(#mask-2)" stroke-width="20" xlink:href="#path-1"></use>
            <g id="Air-Sigil" transform="translate(9.000000, 15.000000)">
                <path id="Path-5" stroke="#979797"></path>
                <path d="M195.047549,107.596241 L175.116861,81.2330408 L185.427646,78.0807176 C159.925854,45.3023296 113.318897,36.0285051 76.7599661,57.9953271 C50.5052865,73.7707302 36.0437047,101.685744 36.2622735,130.207499 C36.3801545,129.573162 36.5092554,128.94184 36.6495058,128.313873 C36.9936022,137.834589 39.8482147,147.799982 45.3940076,157.029731 C60.3598364,181.937053 89.2566499,192.055231 109.936847,179.629315 C125.914928,170.028716 132.31324,149.779285 127.494238,129.579479 C126.370767,126.676509 124.971329,123.803408 123.289803,121.004879 C114.823343,106.914323 101.330409,98.2504452 88.2142854,97.0001549 C88.466998,97.0774875 88.719063,97.1588347 88.970384,97.2441652 C84.5881501,96.9786294 80.1160178,97.9763707 76.1083306,100.384432 C65.3003599,106.878516 61.9629567,121.170377 68.6540321,132.306196 C75.3451075,143.442016 89.5308873,147.204886 100.338858,140.710802 C103.737518,138.668681 106.397456,135.855483 108.239135,132.611816 C106.756819,138.229943 103.400104,143.096851 98.3603486,146.125042 C87.0407499,152.926543 71.5170662,147.876508 63.6872305,134.845473 C56.3346692,122.608756 58.3811211,107.685701 68.0311518,100.279871 C69.7575855,98.584339 71.6884125,97.0795113 73.8189757,95.7993398 C82.5837435,90.532936 93.1185318,90.0360389 103.18405,93.485211 C103.047769,93.3892982 102.911199,93.2940795 102.774347,93.1995568 C103.895691,93.629 105.006205,94.0967093 106.103803,94.6020807 C115.287771,98.485361 123.886879,105.660235 130.141899,115.479795 C130.562797,116.123072 130.973281,116.777342 131.372941,117.442487 C147.047222,143.528871 140.135941,176.463626 115.936162,191.004321 C93.2957459,204.608055 63.5441049,197.292361 46.968575,174.931516 C43.181994,170.751444 39.7451261,166.14383 36.7305242,161.126689 C11.71431,119.492718 25.2495486,65.4236808 66.9623256,40.3601157 C108.675103,15.2965507 162.769638,28.7295196 187.785852,70.3634916 C188.969593,72.3335679 190.067015,74.3314874 191.079215,76.3528594 L200.323492,73.5266005 L215.601269,123.497958 L205.18715,120.065031 L212.702151,152.616077 L185.691692,110.412702 L195.047549,107.596241 Z" id="Combined-Shape" fill="#E5CC50" transform="translate(119.888581, 112.798692) rotate(20.000000) translate(-119.888581, -112.798692) "></path>
            </g>
        </g>
    </g>
</svg>