<?xml version="1.0" encoding="UTF-8" standalone="no"?>
<svg width="256px" height="256px" viewBox="0 0 256 256" version="1.1" xmlns="http://www.w3.org/2000/svg" xmlns:xlink="http://www.w3.org/1999/xlink">
    <!-- Generator: Sketch 3.7.1 (28215) - http://www.bohemiancoding.com/sketch -->
    <title>cancel</title>
    <desc>Created with Sketch.</desc>
    <defs></defs>
    <g id="Page-1" stroke="none" stroke-width="1" fill="none" fill-rule="evenodd">
        <g id="cancel" fill="#7A6A8A">
            <path d="M153.421356,103.421356 L153.421356,48.4214839 C153.421356,37.370822 144.469351,28.4213562 133.426493,28.4213562 L123.416219,28.4213562 C112.374779,28.4213562 103.421356,37.3757184 103.421356,48.4214839 L103.421356,103.421356 L48.4214839,103.421356 C37.370822,103.421356 28.4213562,112.373361 28.4213562,123.416219 L28.4213562,133.426493 C28.4213562,144.467934 37.3757184,153.421356 48.4214839,153.421356 L103.421356,153.421356 L103.421356,208.421229 C103.421356,219.47189 112.373361,228.421356 123.416219,228.421356 L133.426493,228.421356 C144.467934,228.421356 153.421356,219.466994 153.421356,208.421229 L153.421356,153.421356 L208.421229,153.421356 C219.47189,153.421356 228.421356,144.469351 228.421356,133.426493 L228.421356,123.416219 C228.421356,112.374779 219.466994,103.421356 208.421229,103.421356 L153.421356,103.421356 Z" id="Combined-Shape" transform="translate(128.421356, 128.421356) rotate(-315.000000) translate(-128.421356, -128.421356) "></path>
        </g>
    </g>
</svg>