<?xml version="1.0" encoding="UTF-8" standalone="no"?>
<svg width="256px" height="256px" viewBox="0 0 256 256" version="1.1" xmlns="http://www.w3.org/2000/svg" xmlns:xlink="http://www.w3.org/1999/xlink">
    <!-- Generator: Sketch 3.7.1 (28215) - http://www.bohemiancoding.com/sketch -->
    <title>Fire</title>
    <desc>Created with Sketch.</desc>
    <defs>
        <rect id="path-1" x="0" y="0" width="255.894975" height="256"></rect>
        <mask id="mask-2" maskContentUnits="userSpaceOnUse" maskUnits="objectBoundingBox" x="0" y="0" width="255.894975" height="256" fill="white">
            <use xlink:href="#path-1"></use>
        </mask>
    </defs>
    <g id="Page-1" stroke="none" stroke-width="1" fill="none" fill-rule="evenodd">
        <g id="Fire">
            <use id="Box" stroke="#E55050" mask="url(#mask-2)" stroke-width="20" xlink:href="#path-1"></use>
            <g id="Fire-Sigil" transform="translate(49.000000, 43.000000)">
                <path d="M64.7491304,168.614435 C73.3573267,169.039822 82.6493584,168.97349 91.6198093,168.97349 C92.816826,168.97349 93.9849709,168.931565 95.1244603,168.849848 C101.886402,169.013986 108.858564,168.972583 115.657921,168.972583 C148.636906,168.972583 161.117885,134.398694 157.06337,110.584819 C153.008856,86.7709434 162.595228,102.072816 141.329876,118.66806 C120.064525,135.263305 170.259607,99.7665876 101.98713,14.6358639 C74.7941083,-19.27182 111.47173,9.58939288 93.1456531,61.739538 C89.1409554,56.3642122 84.4095711,50.6827867 78.8332004,44.6965793 C53.2223492,17.2034523 88.1836028,40.9581382 70.1990665,83.5033344 C33.2430419,18.2963271 80.9943014,-23.7448449 52.2048062,14.6358639 C-11.6520281,99.7665876 35.2965984,135.263305 15.4066213,118.66806 C-4.48335578,102.072816 4.48300029,86.7709434 0.690718943,110.584819 C-3.1015624,134.398694 8.57218627,168.972583 39.4181973,168.972583 C47.8562381,168.972583 56.5788198,169.045471 64.7491304,168.614435 Z" id="Combined-Shape" stroke="#E55050" stroke-width="6"></path>
                <path d="M73.4465162,152.592371 C76.1439541,152.725669 79.0556767,152.704883 81.8666297,152.704883 C82.2417232,152.704883 82.6077695,152.691746 82.9648364,152.666139 C85.0837376,152.717573 87.2685131,152.704599 89.3991387,152.704599 C99.7333324,152.704599 103.644333,141.870631 102.373823,134.408388 C101.103313,126.946145 104.107269,131.741093 97.4436239,136.941328 C90.7799786,142.141563 106.508956,131.01842 85.1153014,104.342118 C76.5941796,93.7169101 88.0873667,102.760771 82.3447634,119.102381 C81.0898636,117.417985 79.6072515,115.637671 77.8598571,113.761852 C69.8345194,105.14669 80.7898706,112.590385 75.1542914,125.922217 C63.5738649,105.489149 78.5370531,92.3152568 69.5156652,104.342118 C49.5056834,131.01842 64.217361,142.141563 57.9846988,136.941328 C51.7520366,131.741093 54.5617064,126.946145 53.3733688,134.408388 C52.1850311,141.870631 55.8430812,152.704599 65.5088926,152.704599 C68.1530112,152.704599 70.8862927,152.727439 73.4465162,152.592371 Z" id="Combined-Shape-Copy" fill="#E55050"></path>
            </g>
        </g>
    </g>
</svg>