<?xml version="1.0" encoding="UTF-8" standalone="no"?>
<svg width="256px" height="256px" viewBox="0 0 256 256" version="1.1" xmlns="http://www.w3.org/2000/svg" xmlns:xlink="http://www.w3.org/1999/xlink">
    <!-- Generator: Sketch 3.7.2 (28276) - http://www.bohemiancoding.com/sketch -->
    <title>kaleidoscope</title>
    <desc>Created with Sketch.</desc>
    <defs>
        <rect id="path-1" x="126" y="126" width="130" height="130"></rect>
        <mask id="mask-2" maskContentUnits="userSpaceOnUse" maskUnits="objectBoundingBox" x="0" y="0" width="130" height="130" fill="white">
            <use xlink:href="#path-1"></use>
        </mask>
        <rect id="path-3" x="126" y="0" width="130" height="130"></rect>
        <mask id="mask-4" maskContentUnits="userSpaceOnUse" maskUnits="objectBoundingBox" x="0" y="0" width="130" height="130" fill="white">
            <use xlink:href="#path-3"></use>
        </mask>
        <rect id="path-5" x="0" y="126" width="130" height="130"></rect>
        <mask id="mask-6" maskContentUnits="userSpaceOnUse" maskUnits="objectBoundingBox" x="0" y="0" width="130" height="130" fill="white">
            <use xlink:href="#path-5"></use>
        </mask>
        <rect id="path-7" x="0" y="0" width="130" height="130"></rect>
        <mask id="mask-8" maskContentUnits="userSpaceOnUse" maskUnits="objectBoundingBox" x="0" y="0" width="130" height="130" fill="white">
            <use xlink:href="#path-7"></use>
        </mask>
    </defs>
    <g id="Page-1" stroke="none" stroke-width="1" fill="none" fill-rule="evenodd">
        <g id="kaleidoscope">
            <rect id="Rectangle-39" fill-opacity="0.49" fill="#7A6A8A" x="0" y="0" width="256" height="256" rx="20"></rect>
            <g id="Air-Sigil" transform="translate(65.500000, 64.500000) scale(-1, 1) translate(-65.500000, -64.500000) translate(11.000000, 13.000000)">
                <path id="Path-5" stroke="#979797"></path>
                <path d="M93.0964445,54.4005551 L98.0736579,56.2266373 L90.8101442,32.4687544 L89.0737552,32.9996218 C88.7018893,32.2754451 88.3036614,31.5592515 87.8787634,30.8521025 C76.7861922,12.3909638 51.7172743,7.08505711 31.8857682,19.0010282 C12.054262,30.9169992 4.96995554,55.5425123 16.0625268,74.003651 C18.2351663,77.6195303 20.9439783,80.7307374 24.0445922,83.3067159 C23.8586968,83.077432 23.6753953,82.8453332 23.4947474,82.6104321 C31.2038887,90.6751057 43.686075,92.6539997 53.6015147,86.6962024 C65.106816,79.78312 68.7994425,64.8019711 61.8492269,53.2348698 C58.9275814,48.3724352 54.5903319,44.8873182 49.6892624,42.9943176 C49.862899,43.1184931 50.0352951,43.2452038 50.2063905,43.3744307 C45.0866072,41.31084 39.4657713,41.442173 34.7975785,44.2471062 C33.7846448,44.8557382 32.8618003,45.5630709 32.0316993,46.3536956 C27.4210651,49.8368372 26.2545821,56.6096034 29.51482,62.0355505 C32.9866887,67.8137103 40.1639055,69.876453 45.5455824,66.6428153 C47.9416334,65.2031226 49.5777972,62.9562869 50.3493513,60.3964621 C49.4435572,61.8883293 48.161771,63.1972297 46.5459461,64.1681153 C41.4075124,67.2555977 34.8368209,65.7556252 31.869896,60.8178328 C28.902971,55.8800405 30.6633266,49.3742698 35.8017603,46.2867874 C37.7071351,45.1419227 39.8094438,44.6278282 41.8519208,44.6858888 C41.7357756,44.6508794 41.6192267,44.6176805 41.5023186,44.5863051 C47.6090594,44.9659419 53.7869657,48.6905096 57.5411233,54.9384771 C58.9420399,57.2699939 59.8742488,59.7345486 60.3609215,62.1976299 C60.8375397,69.9860303 57.5010986,77.4150228 50.941327,81.3565312 C41.1093406,87.2641847 27.7593375,83.1001207 21.1232606,72.055834 C18.7294086,68.0717952 17.5362339,63.7366733 17.4505257,59.5448845 C16.8522649,61.8673023 16.5944586,64.278663 16.6972268,66.6973392 C14.4284031,51.8616673 21.7291315,35.9694909 36.2301915,27.256375 C53.2636588,17.0216353 74.3790138,20.2091306 85.9883161,33.9429352 L79.6331395,35.8859077 L88.7368639,48.4922713 L84.3836625,49.8251654 L96.7004185,70.0110821 L93.0964445,54.4005551 Z" id="Combined-Shape" fill="#E5CC50" transform="translate(54.446661, 51.396588) rotate(20.000000) translate(-54.446661, -51.396588) "></path>
            </g>
            <g id="Fire-Sigil" transform="translate(157.000000, 26.000000)">
                <path d="M31.5528434,74.906666 C35.7476961,75.0956435 40.2757881,75.0661755 44.6471709,75.0661755 C45.2304881,75.0661755 45.7997358,75.0475504 46.3550194,75.011248 C49.6501752,75.084166 53.0477739,75.0657727 56.3611626,75.0657727 C72.4321238,75.0657727 78.5142185,59.7063835 76.5384166,49.1271112 C74.5626148,38.5478389 79.2341413,45.3456688 68.8713412,52.7180771 C58.508541,60.0904853 82.9690636,44.321131 49.6992609,6.5019568 C36.4478529,-8.56147211 54.3211934,4.26007092 45.3907286,27.4276811 C43.4392027,25.0397021 41.1335559,22.5157388 38.4161395,19.8563767 C25.9357375,7.64260344 42.9726761,18.1955808 34.208647,37.0962094 C16.1996383,8.12811112 39.4692637,-10.5486056 25.4398795,6.5019568 C-5.67813986,44.321131 17.2003552,60.0904853 7.50778745,52.7180771 C-2.18478027,45.3456688 2.18460704,38.5478389 0.336593657,49.1271112 C-1.51141972,59.7063835 4.17730476,75.0657727 19.208848,75.0657727 C23.3207825,75.0657727 27.5713763,75.0981532 31.5528434,74.906666 Z" id="Combined-Shape" stroke="#E55050" stroke-width="2"></path>
                <path d="M35.791159,67.7888923 C37.1056452,67.8481097 38.5245542,67.8388757 39.8943573,67.8388757 C40.0771438,67.8388757 40.2555215,67.8330394 40.4295235,67.8216638 C41.4620834,67.8445131 42.5267445,67.8387494 43.5650178,67.8387494 C48.6009649,67.8387494 50.5068315,63.0257783 49.8877003,59.71069 C49.2685691,56.3956017 50.7324243,58.5257488 47.485169,60.8359441 C44.2379137,63.1461393 51.9027881,58.2047028 41.4774647,46.3538023 C37.3250442,41.6335725 42.9257793,45.6512919 40.1273562,52.9110232 C39.5158321,52.1627334 38.7933417,51.371832 37.9418204,50.5385024 C34.0309999,46.7112319 39.3696427,50.0180805 36.6233735,55.9407235 C30.9801257,46.8633691 38.2718242,41.0108904 33.8756193,46.3538023 C24.1245722,58.2047028 31.2937073,63.1461393 28.256474,60.8359441 C25.2192407,58.5257488 26.5884185,56.3956017 26.0093307,59.71069 C25.4302429,63.0257783 27.2128441,67.8387494 31.9230824,67.8387494 C33.2115856,67.8387494 34.5435387,67.8488961 35.791159,67.7888923 Z" id="Combined-Shape-Copy" fill="#E55050"></path>
            </g>
            <g id="Earth-Sigil" transform="translate(195.500000, 187.000000) scale(1, -1) rotate(-180.000000) translate(-195.500000, -187.000000) translate(153.000000, 148.000000)" fill="#5EA63A">
                <rect id="Rectangle-6" x="39.5237089" y="-1.0658141e-14" width="5.64624413" height="57.1159558"></rect>
                <rect id="Rectangle-7" x="-3.19744231e-13" y="42.8369668" width="84.693662" height="5.71159558"></rect>
                <rect id="Rectangle-8" x="14.1156103" y="57.1159558" width="56.4624413" height="5.71159558"></rect>
                <rect id="Rectangle-9" x="28.2312207" y="71.3949447" width="28.2312207" height="5.71159558"></rect>
            </g>
            <g id="Water-Sigil" transform="translate(26.000000, 156.000000)">
                <path d="M38.5545775,75.5353851 C59.8476826,75.5353851 77.1091549,58.6262132 77.1091549,37.7676925 C77.1091549,16.9091719 59.8476826,0 38.5545775,0 C17.2614723,0 0,16.9091719 0,37.7676925 C0,58.6262132 17.2614723,75.5353851 38.5545775,75.5353851 Z" id="Oval-11" stroke="#3AA6A6" stroke-width="3"></path>
                <ellipse id="Oval-11-Copy" stroke="#3AA6A6" stroke-width="3" cx="39.0686385" cy="38.2712618" rx="25.7030516" ry="25.1784617"></ellipse>
                <ellipse id="Oval-11-Copy-2" stroke="#3AA6A6" stroke-width="3" cx="39.0686385" cy="38.2712618" rx="12.8515258" ry="12.5892308"></ellipse>
                <ellipse id="Oval-11-Copy-3" fill="#3AA6A6" cx="39.0686385" cy="38.2712618" rx="2.57030516" ry="2.51784617"></ellipse>
            </g>
            <g id="Window-Pane" stroke="#7A6A8A" stroke-width="10">
                <use id="Rectangle-35-Copy-2" mask="url(#mask-2)" xlink:href="#path-1"></use>
                <use id="Rectangle-35-Copy-4" mask="url(#mask-4)" xlink:href="#path-3"></use>
                <use id="Rectangle-35-Copy-3" mask="url(#mask-6)" xlink:href="#path-5"></use>
                <use id="Rectangle-35-Copy-5" mask="url(#mask-8)" xlink:href="#path-7"></use>
            </g>
        </g>
    </g>
</svg>