<?xml version="1.0" encoding="UTF-8" standalone="no"?>
<svg width="256px" height="256px" viewBox="0 0 256 256" version="1.1" xmlns="http://www.w3.org/2000/svg" xmlns:xlink="http://www.w3.org/1999/xlink">
    <!-- Generator: Sketch 3.7.1 (28215) - http://www.bohemiancoding.com/sketch -->
    <title>trash</title>
    <desc>Created with Sketch.</desc>
    <defs></defs>
    <g id="Page-1" stroke="none" stroke-width="1" fill="none" fill-rule="evenodd">
        <g id="trash" fill="#7A6A8A">
            <g transform="translate(40.000000, 14.000000)">
                <path d="M162.25,51.483871 L145.047419,208.115848 C143.841319,219.097562 133.908215,228 122.858025,228 L54.1419748,228 C43.0932113,228 33.1584233,219.095212 31.9525814,208.115848 L14.75,51.483871 L162.25,51.483871 Z M81.2103933,77.9718049 C81.2103933,73.9040326 84.5205812,70.6064516 88.5853933,70.6064516 C92.6584933,70.6064516 95.9603933,73.9058897 95.9603933,77.9718049 L95.9603933,202.983034 C95.9603933,207.050806 92.6502054,210.348387 88.5853933,210.348387 C84.5122933,210.348387 81.2103933,207.048949 81.2103933,202.983034 L81.2103933,77.9718049 Z M38.9157342,78.8524312 C38.5612044,74.800138 41.571393,71.2266035 45.6207372,70.8723317 C49.6783379,70.5173377 53.2552381,73.5164408 53.609606,77.566884 L64.5050525,202.102407 C64.8595822,206.154701 61.8493937,209.728235 57.8000494,210.082507 C53.7424487,210.437501 50.1655485,207.438398 49.8111807,203.387955 L38.9157342,78.8524312 Z M123.561181,77.566884 C123.91571,73.5145908 127.500705,70.51806 131.550049,70.8723317 C135.60765,71.2273258 138.60942,74.801988 138.255052,78.8524312 L127.359606,203.387955 C127.005076,207.440248 123.420081,210.436779 119.370737,210.082507 C115.313137,209.727513 112.311366,206.152851 112.665734,202.102407 L123.561181,77.566884 Z" id="Combined-Shape"></path>
                <rect id="Rectangle-30" x="0" y="23.5354839" width="177" height="22.0645161"></rect>
                <path d="M44.25,18.3870968 C44.25,8.23218363 52.4765742,0 62.6409896,0 L114.35901,0 C124.516073,0 132.75,8.22995085 132.75,18.3870968 L132.75,36.7741935 L44.25,36.7741935 L44.25,18.3870968 Z M59,24.2709677 C59,17.3656268 64.6037679,11.7677419 71.5123825,11.7677419 L105.487617,11.7677419 C112.398016,11.7677419 118,17.3641085 118,24.2709677 L118,36.7741935 L59,36.7741935 L59,24.2709677 Z" id="Combined-Shape"></path>
            </g>
        </g>
    </g>
</svg>